<?xml version="1.0" encoding="UTF-8"?>
<svg width="481px" height="231px" viewBox="0 0 481 231" version="1.1" xmlns="http://www.w3.org/2000/svg" xmlns:xlink="http://www.w3.org/1999/xlink">
    <title>Group 7</title>
    <defs>
        <linearGradient x1="2.70438265e-14%" y1="49.9975677%" x2="100%" y2="49.9975677%" id="linearGradient-1">
            <stop stop-color="#CACFDD" offset="0%"></stop>
            <stop stop-color="#EEF0F1" offset="100%"></stop>
        </linearGradient>
        <linearGradient x1="4.18766899e-14%" y1="50%" x2="100%" y2="50%" id="linearGradient-2">
            <stop stop-color="#A9AFC4" offset="0%"></stop>
            <stop stop-color="#D4D8E5" offset="100%"></stop>
        </linearGradient>
    </defs>
    <g id="Creative-units" stroke="none" stroke-width="1" fill="none" fill-rule="evenodd">
        <g id="Frame-11" transform="translate(-866, -1019)">
            <g id="Group-7" transform="translate(866, 1019)">
                <path d="M24,0 L457,0 C465.400788,0 469.601181,0 472.809857,1.63490214 C475.632289,3.07300276 477.926997,5.36771111 479.365098,8.1901425 C481,11.3988186 481,15.5992124 481,24 L481,207 C481,215.400788 481,219.601181 479.365098,222.809857 C477.926997,225.632289 475.632289,227.926997 472.809857,229.365098 C469.601181,231 465.400788,231 457,231 L24,231 C15.5992124,231 11.3988186,231 8.1901425,229.365098 C5.36771111,227.926997 3.07300276,225.632289 1.63490214,222.809857 C0,219.601181 0,215.400788 0,207 L0,24 C0,15.5992124 0,11.3988186 1.63490214,8.1901425 C3.07300276,5.36771111 5.36771111,3.07300276 8.1901425,1.63490214 C11.3988186,0 15.5992124,0 24,0 Z" id="Rectangle-4" fill="#ECF3FE"></path>
                <g id="paper-plane" transform="translate(141, 16)">
                    <g id="Group" transform="translate(14.7266, 12.8281)">
                        <path d="M154.671875,1.765625 L72.8164062,44.65625 L47.6875,27.5273438 L153.453125,1.234375 L154.671875,1.765625 Z M156.074219,2.3984375 L120.171875,81.1015625 L90.7070312,57.6015625 L154.921875,1.875 L156.074219,2.3984375 Z" id="Shape" fill="#EEF0F1" fill-rule="nonzero"></path>
                        <path d="M154.921875,1.875 C84.0546875,63.375 91.1679688,57.2109375 89.6289063,58.515625 L73.8632813,82.0664062 L72.8164063,82.0664062 L72.8164063,44.65625 L154.671875,1.765625 L154.921875,1.875 Z" id="Path" fill="url(#linearGradient-1)"></path>
                        <polygon id="Path" fill="url(#linearGradient-2)" points="74.4375 82.0625 100.371094 65.3085938 90.7070312 57.6015625 89.6289062 58.515625 73.859375 82.0625"></polygon>
                        <path d="M72.7382813,46.0234375 L44.8671875,27.015625 L153.554688,0 L157.382813,1.66796875 L72.7382813,46.0234375 Z M50.5078125,28.03125 L72.890625,43.2929688 L148.511719,3.66796875 L50.5078125,28.03125 Z" id="Shape" fill="#5E6175" fill-rule="nonzero"></path>
                        <path d="M120.613281,82.9570312 L88.875,57.6367187 C90.7421875,56.015625 152.972656,2.015625 154.722656,0.49609375 L157.628906,1.8203125 L120.613281,82.9570312 Z M92.5390625,57.5664063 L119.726563,79.2539062 L153.921875,4.296875 L92.5390625,57.5664063 Z" id="Shape" fill="#5E6175" fill-rule="nonzero"></path>
                        <path d="M74.4882813,83.234375 L71.6445313,83.234375 L71.6445313,43.9492188 L154.625,0.453125 L157.089844,1.53515625 L90.5117188,59.3007813 L74.4882813,83.234375 Z M73.9882813,45.375 L73.9882813,79.7773438 L88.75,57.734375 C90.46875,56.2773438 83.5429688,62.2734375 147.265625,6.9765625 L73.9882813,45.375 Z" id="Shape" fill="#5E6175" fill-rule="nonzero"></path>
                        <path d="M74.78125,83.234375 L71.65625,83.234375 L88.734375,57.7265625 L90.6875,56.0820312 L102.382812,65.4101562 L74.78125,83.234375 Z M77.5546875,78.65625 L98.3671875,65.2109375 L90.7421875,59.1171875 C90.4023437,59.3945312 91.4960937,57.8359375 77.5546875,78.65625" id="Shape" fill="#5E6175" fill-rule="nonzero"></path>
                        <path d="M133.4375,115.507813 L126.242187,115.507813 L126.242187,107.644531 C126.235729,101.755452 121.463298,96.983021 115.574219,96.9765625 L42.8242187,96.9765625 C32.9564436,96.9765625 24.9570312,88.9771502 24.9570312,79.109375 C24.9570312,69.2415998 32.9564436,61.2421875 42.8242187,61.2421875 L56.4960937,61.2421875 L56.4960937,68.4414063 L42.8242187,68.4414063 C36.9324625,68.4414065 32.1562504,73.2176187 32.1562504,79.109375 C32.1562504,85.0011313 36.9324625,89.7773435 42.8242187,89.7773438 L115.574219,89.7773438 C125.436898,89.7881118 133.428888,97.7818501 133.4375,107.644531 L133.4375,115.507813 Z" id="Path" fill="#689DFF"></path>
                        <rect id="Rectangle" fill="#F5F5F5" x="8.55078125" y="114.238281" width="155.035156" height="51.1210938" rx="9.353125"></rect>
                        <path d="M154.460937,166.531251 L17.6953125,166.531251 C12.0044474,166.533412 7.38752836,161.925234 7.37890625,156.234375 L7.37890625,123.363281 C7.38537497,117.671527 12.0035567,113.062089 17.6953125,113.066403 L154.460937,113.066403 C160.145067,113.072864 164.751354,117.679151 164.757812,123.363281 L164.757812,156.234375 C164.749208,161.917614 160.144177,166.522646 154.460937,166.531251 M17.6953125,115.410156 C13.304708,115.414463 9.74649413,118.972677 9.7421875,123.363281 L9.7421875,156.234375 C9.74649413,160.62498 13.304708,164.183193 17.6953125,164.1875 L154.460937,164.1875 C158.850651,164.181046 162.407609,160.624089 162.414062,156.234375 L162.414062,123.363281 C162.407609,118.973568 158.850651,115.41661 154.460937,115.410156 L17.6953125,115.410156 Z" id="Shape" fill="#5E6175" fill-rule="nonzero"></path>
                        <path d="M31.453125,127.414062 L142.066406,127.414062 L142.066406,134.507812 L31.453125,134.507812 L31.453125,127.414062 Z M31.453125,145.457031 L86.3242188,145.457031 L86.3242188,152.550781 L31.453125,152.550781 L31.453125,145.457031 Z M19.6484375,174.28125 C18.5117188,174.28125 18.0117188,174.28125 17.2265625,174.238281 L17.3828125,171.894531 C18.0898438,171.941406 18.5546875,171.929687 19.6484375,171.929687 L19.6484375,174.28125 Z M13.1328125,173.5 C12.3319806,173.260599 11.5488288,172.965612 10.7890625,172.617188 L11.7617188,170.484375 C12.4245717,170.789946 13.1070776,171.050943 13.8046875,171.265625 L13.1328125,173.5 Z M7.2265625,170.46875 C6.56551058,169.960281 5.93911952,169.408274 5.3515625,168.816406 L7.015625,167.164063 C7.5289374,167.682644 8.07708944,168.16554 8.65625,168.609375 L7.2265625,170.46875 Z M2.7734375,165.550781 C2.334668,164.841695 1.94319167,164.104415 1.6015625,163.34375 L3.7421875,162.386719 C4.03790064,163.053035 4.37988187,163.697839 4.765625,164.316406 L2.7734375,165.550781 Z M0.34375,159.375 C0.186882886,158.556987 0.082503099,157.729777 0.03125,156.898438 L2.375,156.761719 C2.41916199,157.488235 2.51050036,158.211113 2.6484375,158.925781 L0.34375,159.375 Z M2.34375,152.921875 L0,152.921875 L0,150.578125 L2.34375,150.578125 L2.34375,152.921875 Z M2.34375,146.671875 L0,146.671875 L0,144.328125 L2.34375,144.328125 L2.34375,146.671875 Z M2.34375,140.421875 L0,140.421875 L0,138.078125 L2.34375,138.078125 L2.34375,140.421875 Z" id="Shape" fill="#A9AFC4" fill-rule="nonzero"></path>
                        <g transform="translate(29.0039, 11.4648)" fill="#000000" fill-rule="nonzero" id="Shape">
                            <path d="M113.800781,83.4726563 C112.416602,81.9012026 112.26103,79.595778 113.421536,77.8526069 C114.582041,76.1094358 116.769009,75.3635425 118.752817,76.0343052 C120.736625,76.7050679 122.022197,78.6250917 121.886719,80.7148438 C121.754891,82.5741234 120.522526,84.1737173 118.758364,84.7754074 C116.994201,85.3770975 115.041241,84.8638996 113.800781,83.4726563 M117.277344,78.1367164 C116.035813,78.1349613 115.020827,79.1263782 114.99342,80.3676076 C114.966013,81.6088369 115.936249,82.6440886 117.176647,82.6971334 C118.417046,82.7501781 119.472121,81.8015375 119.550781,80.5625 C119.588348,79.9347877 119.366028,79.3192645 118.936015,78.8604366 C118.506002,78.4016087 117.906171,78.139888 117.277344,78.1367164 M137.960937,96.9179714 C136.974381,96.9179714 136.031908,96.509251 135.35763,95.7890828 C134.683351,95.0689146 134.33751,94.1016115 134.402344,93.1171875 C134.527732,91.1788118 136.179747,89.6963198 138.120339,89.7807181 C140.060932,89.8651163 141.578003,91.4854349 141.534632,93.4273776 C141.491261,95.3693203 139.903363,96.9202931 137.960937,96.9179714 M136.738281,93.2851563 C136.702021,93.8394013 137.042732,94.3488388 137.568817,94.5269886 C138.094902,94.7051383 138.675042,94.5075314 138.982997,94.0452915 C139.290953,93.5830516 139.249854,92.9715603 138.882812,92.5546875 C138.55692,92.1787025 138.035686,92.0377097 137.564694,92.1981387 C137.093702,92.3585676 136.766907,92.7884154 136.738281,93.2851562 M4.93398438,6.79140625 L6.59101563,5.134375 L11.584375,10.1273438 L9.92734375,11.784375 L4.93398438,6.79140625 Z M0,15.6054688 L7.0625,15.6054688 L7.0625,17.9492188 L0,17.9492188 L0,15.6054688 Z M14.9882813,0 L17.3320313,0 L17.3320313,7.0625 L14.9882813,7.0625 L14.9882813,0 Z"></path>
                        </g>
                    </g>
                </g>
            </g>
        </g>
    </g>
</svg>