<svg width="1393" height="319" viewBox="0 0 1393 319" fill="none" xmlns="http://www.w3.org/2000/svg">
<path d="M416.123 204.299C416.123 208.693 415.35 213.454 413.804 218.581C412.257 223.627 409.735 228.347 406.235 232.741C402.817 237.054 398.301 240.676 392.686 243.605C387.152 246.535 380.397 248 372.422 248H315.171C310.776 248 306.016 247.227 300.889 245.681C295.843 244.134 291.123 241.652 286.729 238.234C282.415 234.735 278.794 230.218 275.864 224.685C272.935 219.069 271.47 212.274 271.47 204.299C271.47 199.904 272.243 195.144 273.789 190.017C275.335 184.89 277.817 180.17 281.235 175.856C284.735 171.462 289.251 167.8 294.785 164.87C300.4 161.94 307.196 160.476 315.171 160.476H372.422V190.749H315.171C310.858 190.749 307.521 192.092 305.161 194.777C302.801 197.382 301.621 200.637 301.621 204.543C301.621 208.693 302.964 211.949 305.649 214.309C308.416 216.587 311.672 217.727 315.415 217.727H372.422C376.735 217.727 380.072 216.424 382.432 213.82C384.792 211.216 385.972 207.961 385.972 204.055V159.743C385.972 155.593 384.67 152.297 382.065 149.855C379.543 147.414 376.328 146.193 372.422 146.193H302.72V116.042H372.422C376.816 116.042 381.536 116.815 386.582 118.361C391.709 119.908 396.429 122.43 400.742 125.93C405.137 129.348 408.799 133.864 411.729 139.479C414.658 145.013 416.123 151.768 416.123 159.743V204.299ZM501.206 248H487.046C482.489 248 477.606 247.227 472.397 245.681C467.271 244.134 462.469 241.612 457.993 238.112C453.517 234.532 449.814 229.934 446.885 224.318C443.955 218.622 442.49 211.664 442.49 203.444V60.2559H474.229V203.444C474.229 207.351 475.449 210.484 477.891 212.844C480.332 215.122 483.384 216.262 487.046 216.262H501.206V248ZM579.575 248H565.415C560.858 248 555.975 247.227 550.767 245.681C545.64 244.134 540.838 241.612 536.362 238.112C531.886 234.532 528.184 229.934 525.254 224.318C522.324 218.622 520.859 211.664 520.859 203.444V60.2559H552.598V203.444C552.598 207.351 553.818 210.484 556.26 212.844C558.701 215.122 561.753 216.262 565.415 216.262H579.575V248ZM745.469 260.695C745.469 266.148 744.777 271.031 743.394 275.344C742.01 279.738 740.179 283.563 737.9 286.818C735.622 290.155 732.977 292.963 729.966 295.241C726.955 297.601 723.781 299.514 720.444 300.979C717.189 302.443 713.893 303.501 710.557 304.152C707.22 304.885 704.046 305.251 701.035 305.251H643.784V273.513H701.035C705.267 273.513 708.441 272.414 710.557 270.217C712.673 268.02 713.73 264.846 713.73 260.695V116.042H745.469V260.695ZM701.035 248H643.784C639.227 248 634.344 247.227 629.136 245.681C624.009 244.134 619.207 241.612 614.731 238.112C610.256 234.532 606.553 229.934 603.623 224.318C600.693 218.622 599.229 211.664 599.229 203.444V116.042H630.967V203.444C630.967 207.595 632.065 210.769 634.263 212.966C636.46 215.163 639.715 216.262 644.028 216.262H701.035V248ZM933.213 116.042C929.632 127.191 925.441 138.177 920.64 149.001C915.838 159.825 910.304 170.16 904.038 180.007C897.853 189.772 890.895 198.846 883.164 207.229C875.514 215.529 867.01 222.731 857.651 228.835C848.374 234.857 838.242 239.618 827.256 243.117C816.351 246.535 804.51 248.244 791.733 248.244C789.536 248.244 787.461 247.837 785.508 247.023C783.555 246.21 781.846 245.111 780.381 243.728C778.916 242.263 777.777 240.594 776.963 238.723C776.149 236.77 775.742 234.694 775.742 232.497V116.042H807.48V215.285C815.212 215.285 822.617 213.617 829.697 210.28C836.859 206.944 843.613 202.549 849.961 197.097C856.309 191.563 862.168 185.297 867.539 178.298C872.992 171.299 877.834 164.138 882.065 156.813C886.297 149.408 889.878 142.165 892.808 135.085C895.819 128.005 898.057 121.657 899.521 116.042H933.213ZM1076.77 204.299C1076.77 208.693 1075.99 213.454 1074.45 218.581C1072.9 223.627 1070.38 228.347 1066.88 232.741C1063.46 237.054 1058.95 240.676 1053.33 243.605C1047.8 246.535 1041.04 248 1033.07 248H975.815C971.421 248 966.66 247.227 961.533 245.681C956.488 244.134 951.768 241.652 947.373 238.234C943.06 234.735 939.438 230.218 936.509 224.685C933.579 219.069 932.114 212.274 932.114 204.299C932.114 199.904 932.887 195.144 934.434 190.017C935.98 184.89 938.462 180.17 941.88 175.856C945.379 171.462 949.896 167.8 955.43 164.87C961.045 161.94 967.84 160.476 975.815 160.476H1033.07V190.749H975.815C971.502 190.749 968.166 192.092 965.806 194.777C963.446 197.382 962.266 200.637 962.266 204.543C962.266 208.693 963.608 211.949 966.294 214.309C969.061 216.587 972.316 217.727 976.06 217.727H1033.07C1037.38 217.727 1040.72 216.424 1043.08 213.82C1045.44 211.216 1046.62 207.961 1046.62 204.055V159.743C1046.62 155.593 1045.31 152.297 1042.71 149.855C1040.19 147.414 1036.97 146.193 1033.07 146.193H963.364V116.042H1033.07C1037.46 116.042 1042.18 116.815 1047.23 118.361C1052.35 119.908 1057.07 122.43 1061.39 125.93C1065.78 129.348 1069.44 133.864 1072.37 139.479C1075.3 145.013 1076.77 151.768 1076.77 159.743V204.299ZM1223.37 147.78H1167.95V248H1135.85V147.78H1094.59V116.042H1135.85V72.9512H1167.95V116.042H1223.37V147.78ZM1385.73 159.743C1385.73 164.138 1384.95 168.898 1383.41 174.025C1381.86 179.071 1379.34 183.791 1375.84 188.186C1372.42 192.499 1367.91 196.12 1362.29 199.05C1356.76 201.979 1350 203.444 1342.03 203.444H1284.78V173.293H1342.03C1346.34 173.293 1349.68 171.991 1352.04 169.387C1354.4 166.701 1355.58 163.405 1355.58 159.499C1355.58 155.349 1354.23 152.093 1351.55 149.733C1348.94 147.373 1345.77 146.193 1342.03 146.193H1284.78C1280.46 146.193 1277.13 147.536 1274.77 150.222C1272.41 152.826 1271.23 156.081 1271.23 159.987V204.299C1271.23 208.531 1272.53 211.826 1275.13 214.187C1277.82 216.547 1281.11 217.727 1285.02 217.727H1342.03V248H1284.78C1280.38 248 1275.62 247.227 1270.49 245.681C1265.45 244.134 1260.73 241.652 1256.33 238.234C1252.02 234.735 1248.4 230.218 1245.47 224.685C1242.54 219.069 1241.07 212.274 1241.07 204.299V159.743C1241.07 155.349 1241.85 150.629 1243.39 145.583C1244.94 140.456 1247.42 135.736 1250.84 131.423C1254.34 127.028 1258.86 123.366 1264.39 120.437C1270 117.507 1276.8 116.042 1284.78 116.042H1342.03C1346.42 116.042 1351.14 116.815 1356.19 118.361C1361.31 119.908 1366.03 122.43 1370.35 125.93C1374.74 129.348 1378.4 133.864 1381.33 139.479C1384.26 145.013 1385.73 151.768 1385.73 159.743Z" fill="#060606"/>
<mask id="mask0_1881_1938" style="mask-type:luminance" maskUnits="userSpaceOnUse" x="0" y="61" width="220" height="189">
<path d="M220 119.862C220 117.619 220 115.375 219.985 113.131C219.972 111.241 219.947 109.351 219.887 107.461C219.758 103.344 219.475 99.1905 218.622 95.1185C217.758 90.9878 216.346 87.1434 214.121 83.3902C211.934 79.7013 209.077 76.3257 205.668 73.3992C202.26 70.4727 198.329 68.0198 194.034 66.142C189.661 64.2302 185.181 63.0177 180.367 62.2753C175.627 61.5441 170.792 61.3016 165.998 61.1904C163.797 61.1392 161.596 61.1177 159.395 61.106C156.782 61.0922 154.169 61.0934 151.555 61.0934L121.213 61H98.5189L68.7132 61.0934C66.0945 61.0934 63.4764 61.0922 60.8578 61.106C58.6519 61.1177 56.4471 61.1392 54.2423 61.1904C49.4377 61.3016 44.5911 61.5443 39.8394 62.2764C35.0195 63.0187 30.5331 64.2306 26.1539 66.1411C21.8493 68.0191 17.9104 70.4722 14.4951 73.3992C11.0803 76.3255 8.21791 79.7004 6.02672 83.3886C3.79577 87.1436 2.38127 90.9904 1.51463 95.1233C0.66133 99.1937 0.37859 103.345 0.248566 107.461C0.189295 109.351 0.163664 111.241 0.150314 113.131C0.134295 115.375 0 118.162 0 120.407V145.657V165.362L0.13563 191.15C0.13563 193.397 0.134562 195.644 0.150314 197.891C0.163664 199.783 0.189295 201.676 0.248833 203.568C0.37859 207.691 0.661864 211.85 1.51596 215.928C2.38234 220.064 3.79657 223.914 6.02565 227.672C8.21711 231.366 11.08 234.746 14.4951 237.676C17.9101 240.607 21.8479 243.063 26.1518 244.944C30.5336 246.858 35.0222 248.072 39.845 248.816C44.5945 249.548 49.4396 249.791 54.2423 249.902C56.4471 249.953 58.6524 249.975 60.8583 249.986C63.4764 250 66.0945 250 68.7132 250H98.788H121.538H151.555C154.169 250 156.782 250 159.395 249.986C161.596 249.975 163.797 249.953 165.998 249.902C170.793 249.79 175.63 249.548 180.373 248.815C185.183 248.071 189.661 246.858 194.032 244.945C198.328 243.064 202.26 240.608 205.668 237.676C209.076 234.747 211.933 231.367 214.12 227.673C216.346 223.913 217.758 220.062 218.623 215.923C219.475 211.847 219.758 207.689 219.887 203.568C219.947 201.676 219.972 199.783 219.985 197.891C220 195.644 220 193.397 220 191.15C220 191.15 220 165.818 220 165.362V145.637C220 145.3 220 119.862 220 119.862Z" fill="white"/>
</mask>
<g mask="url(#mask0_1881_1938)">
<path d="M103.325 74.5791C103.325 77.6588 100.831 80.1582 97.7574 80.1582C94.6726 80.1582 92.1895 77.6588 92.1895 74.5791C92.1895 71.4883 94.6726 69 97.7574 69C100.831 69 103.325 71.4883 103.325 74.5791Z" fill="black"/>
<path d="M116.474 74.2111C116.474 77.0877 114.144 79.4222 111.273 79.4222C108.392 79.4222 106.072 77.0877 106.072 74.2111C106.072 71.3241 108.392 69 111.273 69C114.144 69 116.474 71.3241 116.474 74.2111Z" fill="black"/>
<path d="M128.889 73.4751C128.889 75.9453 126.889 77.9501 124.424 77.9501C121.949 77.9501 119.957 75.9453 119.957 73.4751C119.957 70.9959 121.949 69 124.424 69C126.889 69 128.889 70.9959 128.889 73.4751Z" fill="black"/>
<path d="M95.0529 87.99C95.0529 90.7934 92.7827 93.0682 89.9848 93.0682C87.1764 93.0682 84.916 90.7934 84.916 87.99C84.916 85.1762 87.1764 82.9111 89.9848 82.9111C92.7827 82.9111 95.0529 85.1762 95.0529 87.99Z" fill="black"/>
<path d="M108.732 87.8866C108.732 90.6331 106.507 92.8621 103.766 92.8621C101.016 92.8621 98.8008 90.6331 98.8008 87.8866C98.8008 85.1303 101.016 82.9111 103.766 82.9111C106.507 82.9111 108.732 85.1303 108.732 87.8866Z" fill="black"/>
<path d="M122.057 87.6071C122.057 90.1992 119.957 92.303 117.37 92.303C114.774 92.303 112.684 90.1992 112.684 87.6071C112.684 85.0055 114.774 82.9111 117.37 82.9111C119.957 82.9111 122.057 85.0055 122.057 87.6071Z" fill="black"/>
<path d="M134.178 86.7238C134.178 88.8286 132.474 90.5363 130.374 90.5363C128.265 90.5363 126.568 88.8286 126.568 86.7238C126.568 84.6116 128.265 82.9111 130.374 82.9111C132.474 82.9111 134.178 84.6116 134.178 86.7238Z" fill="black"/>
<path d="M89.2369 102.299C89.2369 105.321 86.7888 107.774 83.7721 107.774C80.7442 107.774 78.3066 105.321 78.3066 102.299C78.3066 99.2646 80.7442 96.8223 83.7721 96.8223C86.7888 96.8223 89.2369 99.2646 89.2369 102.299Z" fill="black"/>
<path d="M103.62 102.548C103.62 105.709 101.059 108.275 97.9042 108.275C94.7381 108.275 92.1895 105.709 92.1895 102.548C92.1895 99.3759 94.7381 96.8223 97.9042 96.8223C101.059 96.8223 103.62 99.3759 103.62 102.548Z" fill="black"/>
<path d="M117.003 102.299C117.003 105.321 114.554 107.774 111.538 107.774C108.51 107.774 106.072 105.321 106.072 102.299C106.072 99.2646 108.51 96.8223 111.538 96.8223C114.554 96.8223 117.003 99.2646 117.003 102.299Z" fill="black"/>
<path d="M127.744 100.723C127.744 102.877 126 104.624 123.85 104.624C121.693 104.624 119.957 102.877 119.957 100.723C119.957 98.5618 121.693 96.8223 123.85 96.8223C126 96.8223 127.744 98.5618 127.744 100.723Z" fill="black"/>
<path d="M140.01 99.9138C140.01 101.62 138.628 103.005 136.925 103.005C135.216 103.005 133.84 101.62 133.84 99.9138C133.84 98.2008 135.216 96.8223 136.925 96.8223C138.628 96.8223 140.01 98.2008 140.01 99.9138Z" fill="black"/>
<path d="M82.6101 116.534C82.6101 119.735 80.0171 122.333 76.822 122.333C73.6149 122.333 71.0332 119.735 71.0332 116.534C71.0332 113.32 73.6149 110.733 76.822 110.733C80.0171 110.733 82.6101 113.32 82.6101 116.534Z" fill="black"/>
<path d="M90.3226 113.442C90.3226 114.937 89.1115 116.151 87.6193 116.151C86.1219 116.151 84.916 114.937 84.916 113.442C84.916 111.942 86.1219 110.733 87.6193 110.733C89.1115 110.733 90.3226 111.942 90.3226 113.442Z" fill="black"/>
<path d="M101.945 112.309C101.945 113.178 101.24 113.884 100.373 113.884C99.5016 113.884 98.8008 113.178 98.8008 112.309C98.8008 111.436 99.5016 110.733 100.373 110.733C101.24 110.733 101.945 111.436 101.945 112.309Z" fill="black"/>
<path d="M120.911 114.855C120.911 117.13 119.068 118.977 116.797 118.977C114.518 118.977 112.684 117.13 112.684 114.855C112.684 112.572 114.518 110.733 116.797 110.733C119.068 110.733 120.911 112.572 120.911 114.855Z" fill="black"/>
<path d="M133.121 114.016C133.121 115.828 131.653 117.299 129.845 117.299C128.029 117.299 126.568 115.828 126.568 114.016C126.568 112.197 128.029 110.733 129.845 110.733C131.653 110.733 133.121 112.197 133.121 114.016Z" fill="black"/>
<path d="M146.034 113.53C146.034 115.074 144.783 116.327 143.242 116.327C141.696 116.327 140.451 115.074 140.451 113.53C140.451 111.981 141.696 110.733 143.242 110.733C144.783 110.733 146.034 111.981 146.034 113.53Z" fill="black"/>
<path d="M75.3231 130.105C75.3231 133.119 72.8809 135.566 69.8721 135.566C66.8528 135.566 64.4219 133.119 64.4219 130.105C64.4219 127.079 66.8528 124.644 69.8721 124.644C72.8809 124.644 75.3231 127.079 75.3231 130.105Z" fill="black"/>
<path d="M82.6257 126.808C82.6257 128.002 81.6585 128.971 80.4665 128.971C79.2699 128.971 78.3066 128.002 78.3066 126.808C78.3066 125.609 79.2699 124.644 80.4665 124.644C81.6585 124.644 82.6257 125.609 82.6257 126.808Z" fill="black"/>
<path d="M95.8626 126.484C95.8626 127.499 95.0395 128.324 94.026 128.324C93.0086 128.324 92.1895 127.499 92.1895 126.484C92.1895 125.464 93.0086 124.644 94.026 124.644C95.0395 124.644 95.8626 125.464 95.8626 126.484Z" fill="black"/>
<path d="M127.714 128.53C127.714 130.675 125.977 132.416 123.836 132.416C121.687 132.416 119.957 130.675 119.957 128.53C119.957 126.377 121.687 124.644 123.836 124.644C125.977 124.644 127.714 126.377 127.714 128.53Z" fill="black"/>
<path d="M140.157 127.809C140.157 129.555 138.742 130.974 136.999 130.974C135.249 130.974 133.84 129.555 133.84 127.809C133.84 126.055 135.249 124.644 136.999 124.644C138.742 124.644 140.157 126.055 140.157 127.809Z" fill="black"/>
<path d="M152.835 127.205C152.835 128.619 151.69 129.766 150.279 129.766C148.863 129.766 147.723 128.619 147.723 127.205C147.723 125.786 148.863 124.644 150.279 124.644C151.69 124.644 152.835 125.786 152.835 127.205Z" fill="black"/>
<path d="M67.0817 143.53C67.0817 146.277 64.8571 148.506 62.1161 148.506C59.3651 148.506 57.1504 146.277 57.1504 143.53C57.1504 140.774 59.3651 138.555 62.1161 138.555C64.8571 138.555 67.0817 140.774 67.0817 143.53Z" fill="black"/>
<path d="M76.1165 141.101C76.1165 142.507 74.9781 143.648 73.5745 143.648C72.167 143.648 71.0332 142.507 71.0332 141.101C71.0332 139.691 72.167 138.555 73.5745 138.555C74.9781 138.555 76.1165 139.691 76.1165 141.101Z" fill="black"/>
<path d="M89.206 140.704C89.206 141.89 88.2447 142.853 87.0607 142.853C85.8727 142.853 84.916 141.89 84.916 140.704C84.916 139.513 85.8727 138.555 87.0607 138.555C88.2447 138.555 89.206 139.513 89.206 140.704Z" fill="black"/>
<path d="M82.6064 152.033C82.6064 153.219 81.6451 154.182 80.4611 154.182C79.273 154.182 78.3164 153.219 78.3164 152.033C78.3164 150.842 79.273 149.884 80.4611 149.884C81.6451 149.884 82.6064 150.842 82.6064 152.033Z" fill="black"/>
<path d="M134.266 142.411C134.266 144.54 132.542 146.268 130.417 146.268C128.285 146.268 126.568 144.54 126.568 142.411C126.568 140.275 128.285 138.555 130.417 138.555C132.542 138.555 134.266 140.275 134.266 142.411Z" fill="black"/>
<path d="M146.621 141.646C146.621 143.353 145.24 144.737 143.537 144.737C141.827 144.737 140.451 143.353 140.451 141.646C140.451 139.933 141.827 138.555 143.537 138.555C145.24 138.555 146.621 139.933 146.621 141.646Z" fill="black"/>
<path d="M158.947 140.866C158.947 142.142 157.914 143.177 156.641 143.177C155.363 143.177 154.334 142.142 154.334 140.866C154.334 139.585 155.363 138.555 156.641 138.555C157.914 138.555 158.947 139.585 158.947 140.866Z" fill="black"/>
<path d="M59.9124 157.162C59.9124 159.754 57.8127 161.858 55.2257 161.858C52.6295 161.858 50.5391 159.754 50.5391 157.162C50.5391 154.56 52.6295 152.466 55.2257 152.466C57.8127 152.466 59.9124 154.56 59.9124 157.162Z" fill="black"/>
<path d="M69.3287 154.924C69.3287 156.281 68.2299 157.382 66.8753 157.382C65.516 157.382 64.4219 156.281 64.4219 154.924C64.4219 153.562 65.516 152.466 66.8753 152.466C68.2299 152.466 69.3287 153.562 69.3287 154.924Z" fill="black"/>
<path d="M141.186 156.146C141.186 158.177 139.54 159.826 137.513 159.826C135.478 159.826 133.84 158.177 133.84 156.146C133.84 154.107 135.478 152.466 137.513 152.466C139.54 152.466 141.186 154.107 141.186 156.146Z" fill="black"/>
<path d="M154.686 155.955C154.686 157.881 153.127 159.443 151.205 159.443C149.276 159.443 147.723 157.881 147.723 155.955C147.723 154.022 149.276 152.466 151.205 152.466C153.127 152.466 154.686 154.022 154.686 155.955Z" fill="black"/>
<path d="M166.044 154.689C166.044 155.916 165.051 156.911 163.826 156.911C162.597 156.911 161.607 155.916 161.607 154.689C161.607 153.457 162.597 152.466 163.826 152.466C165.051 152.466 166.044 153.457 166.044 154.689Z" fill="black"/>
<path d="M52.4624 170.985C52.4624 173.528 50.4024 175.592 47.8644 175.592C45.3164 175.592 43.2656 173.528 43.2656 170.985C43.2656 168.432 45.3164 166.377 47.8644 166.377C50.4024 166.377 52.4624 168.432 52.4624 170.985Z" fill="black"/>
<path d="M63.3206 169.469C63.3206 171.175 61.9389 172.559 60.2358 172.559C58.5262 172.559 57.1504 171.175 57.1504 169.469C57.1504 167.755 58.5262 166.377 60.2358 166.377C61.9389 166.377 63.3206 167.755 63.3206 169.469Z" fill="black"/>
<path d="M75.7933 168.762C75.7933 170.078 74.7269 171.146 73.4132 171.146C72.095 171.146 71.0332 170.078 71.0332 168.762C71.0332 167.441 72.095 166.377 73.4132 166.377C74.7269 166.377 75.7933 167.441 75.7933 168.762Z" fill="black"/>
<path d="M146.533 169.424C146.533 171.106 145.171 172.471 143.492 172.471C141.808 172.471 140.451 171.106 140.451 169.424C140.451 167.736 141.808 166.377 143.492 166.377C145.171 166.377 146.533 167.736 146.533 169.424Z" fill="black"/>
<path d="M160.504 169.469C160.504 171.175 159.122 172.559 157.419 172.559C155.71 172.559 154.334 171.175 154.334 169.469C154.334 167.755 155.71 166.377 157.419 166.377C159.122 166.377 160.504 167.755 160.504 169.469Z" fill="black"/>
<path d="M172.714 168.629C172.714 169.873 171.707 170.881 170.467 170.881C169.221 170.881 168.219 169.873 168.219 168.629C168.219 167.381 169.221 166.377 170.467 166.377C171.707 166.377 172.714 167.381 172.714 168.629Z" fill="black"/>
<path d="M45.2362 184.587C45.2362 186.959 43.3144 188.885 40.9462 188.885C38.5695 188.885 36.6562 186.959 36.6562 184.587C36.6562 182.205 38.5695 180.288 40.9462 180.288C43.3144 180.288 45.2362 182.205 45.2362 184.587Z" fill="black"/>
<path d="M57.8848 183.969C57.8848 186 56.2392 187.648 54.2122 187.648C52.1773 187.648 50.5391 186 50.5391 183.969C50.5391 181.93 52.1773 180.288 54.2122 180.288C56.2392 180.288 57.8848 181.93 57.8848 183.969Z" fill="black"/>
<path d="M71.0331 183.6C71.0331 185.429 69.5522 186.912 67.7275 186.912C65.8962 186.912 64.4219 185.429 64.4219 183.6C64.4219 181.765 65.8962 180.288 67.7275 180.288C69.5522 180.288 71.0331 181.765 71.0331 183.6Z" fill="black"/>
<path d="M85.9756 184.13C85.9756 186.251 84.258 187.972 82.1411 187.972C80.017 187.972 78.3066 186.251 78.3066 184.13C78.3066 182.002 80.017 180.288 82.1411 180.288C84.258 180.288 85.9756 182.002 85.9756 184.13Z" fill="black"/>
<path d="M99.5061 183.953C99.5061 185.977 97.8671 187.619 95.8474 187.619C93.8211 187.619 92.1895 185.977 92.1895 183.953C92.1895 181.923 93.8211 180.288 95.8474 180.288C97.8671 180.288 99.5061 181.923 99.5061 183.953Z" fill="black"/>
<path d="M112.654 183.586C112.654 185.406 111.18 186.883 109.363 186.883C107.54 186.883 106.072 185.406 106.072 183.586C106.072 181.759 107.54 180.288 109.363 180.288C111.18 180.288 112.654 181.759 112.654 183.586Z" fill="black"/>
<path d="M125.422 183.026C125.422 184.538 124.198 185.764 122.689 185.764C121.175 185.764 119.957 184.538 119.957 183.026C119.957 181.509 121.175 180.288 122.689 180.288C124.198 180.288 125.422 181.509 125.422 183.026Z" fill="black"/>
<path d="M136.925 181.834C136.925 182.687 136.234 183.38 135.382 183.38C134.528 183.38 133.84 182.687 133.84 181.834C133.84 180.978 134.528 180.288 135.382 180.288C136.234 180.288 136.925 180.978 136.925 181.834Z" fill="black"/>
<path d="M153.276 183.07C153.276 184.606 152.032 185.852 150.499 185.852C148.961 185.852 147.723 184.606 147.723 183.07C147.723 181.529 148.961 180.288 150.499 180.288C152.032 180.288 153.276 181.529 153.276 183.07Z" fill="black"/>
<path d="M166.779 182.879C166.779 184.309 165.62 185.47 164.193 185.47C162.76 185.47 161.607 184.309 161.607 182.879C161.607 181.443 162.76 180.288 164.193 180.288C165.62 180.288 166.779 181.443 166.779 182.879Z" fill="black"/>
<path d="M179.809 182.452C179.809 183.647 178.842 184.616 177.65 184.616C176.453 184.616 175.49 183.647 175.49 182.452C175.49 181.253 176.453 180.288 177.65 180.288C178.842 180.288 179.809 181.253 179.809 182.452Z" fill="black"/>
<path d="M37.4926 198.262C37.4926 200.505 35.6759 202.325 33.4377 202.325C31.1913 202.325 29.3828 200.505 29.3828 198.262C29.3828 196.011 31.1913 194.199 33.4377 194.199C35.6759 194.199 37.4926 196.011 37.4926 198.262Z" fill="black"/>
<path d="M50.7581 197.953C50.7581 200.025 49.0802 201.707 47.0122 201.707C44.9363 201.707 43.2656 200.025 43.2656 197.953C43.2656 195.873 44.9363 194.199 47.0122 194.199C49.0802 194.199 50.7581 195.873 50.7581 197.953Z" fill="black"/>
<path d="M67.1703 199.219C67.1703 201.99 64.9258 204.239 62.1603 204.239C59.385 204.239 57.1504 201.99 57.1504 199.219C57.1504 196.438 59.385 194.199 62.1603 194.199C64.9258 194.199 67.1703 196.438 67.1703 199.219Z" fill="black"/>
<path d="M80.4356 198.91C80.4356 201.51 78.3293 203.62 75.7344 203.62C73.1303 203.62 71.0332 201.51 71.0332 198.91C71.0332 196.3 73.1303 194.199 75.7344 194.199C78.3293 194.199 80.4356 196.3 80.4356 198.91Z" fill="black"/>
<path d="M88.9416 196.216C88.9416 197.329 88.0398 198.233 86.9285 198.233C85.8138 198.233 84.916 197.329 84.916 196.216C84.916 195.099 85.8138 194.199 86.9285 194.199C88.0398 194.199 88.9416 195.099 88.9416 196.216Z" fill="black"/>
<path d="M106.205 197.909C106.205 199.956 104.547 201.618 102.503 201.618C100.452 201.618 98.8008 199.956 98.8008 197.909C98.8008 195.854 100.452 194.199 102.503 194.199C104.547 194.199 106.205 195.854 106.205 197.909Z" fill="black"/>
<path d="M118.648 197.187C118.648 198.837 117.312 200.176 115.666 200.176C114.014 200.176 112.684 198.837 112.684 197.187C112.684 195.532 114.014 194.199 115.666 194.199C117.312 194.199 118.648 195.532 118.648 197.187Z" fill="black"/>
<path d="M132.327 197.085C132.327 198.677 131.038 199.97 129.448 199.97C127.853 199.97 126.568 198.677 126.568 197.085C126.568 195.486 127.853 194.199 129.448 194.199C131.038 194.199 132.327 195.486 132.327 197.085Z" fill="black"/>
<path d="M145.329 196.643C145.329 197.992 144.236 199.087 142.89 199.087C141.539 199.087 140.451 197.992 140.451 196.643C140.451 195.289 141.539 194.199 142.89 194.199C144.236 194.199 145.329 195.289 145.329 196.643Z" fill="black"/>
<path d="M159.3 196.687C159.3 198.061 158.188 199.175 156.817 199.175C155.441 199.175 154.334 198.061 154.334 196.687C154.334 195.309 155.441 194.199 156.817 194.199C158.188 194.199 159.3 195.309 159.3 196.687Z" fill="black"/>
<path d="M173.155 196.672C173.155 198.037 172.049 199.146 170.687 199.146C169.32 199.146 168.219 198.037 168.219 196.672C168.219 195.302 169.32 194.199 170.687 194.199C172.049 194.199 173.155 195.302 173.155 196.672Z" fill="black"/>
<path d="M185.833 196.069C185.833 197.101 184.997 197.938 183.967 197.938C182.934 197.938 182.102 197.101 182.102 196.069C182.102 195.033 182.934 194.199 183.967 194.199C184.997 194.199 185.833 195.033 185.833 196.069Z" fill="black"/>
<path d="M31.0281 212.247C31.0281 214.53 29.1786 216.383 26.8998 216.383C24.6127 216.383 22.7715 214.53 22.7715 212.247C22.7715 209.955 24.6127 208.11 26.8998 208.11C29.1786 208.11 31.0281 209.955 31.0281 212.247Z" fill="black"/>
<path d="M44.6776 212.129C44.6776 214.347 42.8807 216.148 40.6671 216.148C38.445 216.148 36.6562 214.347 36.6562 212.129C36.6562 209.903 38.445 208.11 40.6671 208.11C42.8807 208.11 44.6776 209.903 44.6776 212.129Z" fill="black"/>
<path d="M59.0602 212.379C59.0602 214.736 57.1516 216.648 54.7993 216.648C52.4391 216.648 50.5391 214.736 50.5391 212.379C50.5391 210.014 52.4391 208.11 54.7993 208.11C57.1516 208.11 59.0602 210.014 59.0602 212.379Z" fill="black"/>
<path d="M70.5042 211.158C70.5042 212.839 69.1416 214.205 67.463 214.205C65.7785 214.205 64.4219 212.839 64.4219 211.158C64.4219 209.47 65.7785 208.11 67.463 208.11C69.1416 208.11 70.5042 209.47 70.5042 211.158Z" fill="black"/>
<path d="M128.915 205.988C128.915 207.422 127.753 208.586 126.322 208.586C124.885 208.586 123.729 207.422 123.729 205.988C123.729 204.549 124.885 203.39 126.322 203.39C127.753 203.39 128.915 204.549 128.915 205.988Z" fill="black"/>
<path d="M138.893 210.642C138.893 212.04 137.762 213.174 136.367 213.174C134.967 213.174 133.84 212.04 133.84 210.642C133.84 209.24 134.967 208.11 136.367 208.11C137.762 208.11 138.893 209.24 138.893 210.642Z" fill="black"/>
<path d="M154.323 211.417C154.323 213.242 152.845 214.724 151.023 214.724C149.194 214.724 147.723 213.242 147.723 211.417C147.723 209.585 149.194 208.11 151.023 208.11C152.845 208.11 154.323 209.585 154.323 211.417Z" fill="black"/>
<path d="M39.9669 226.379C39.9669 228.784 38.0187 230.736 35.6182 230.736C33.2091 230.736 31.2695 228.784 31.2695 226.379C31.2695 223.965 33.2091 222.021 35.6182 222.021C38.0187 222.021 39.9669 223.965 39.9669 226.379Z" fill="black"/>
<path d="M51.3756 226.084C51.3756 228.327 49.5588 230.147 47.3203 230.147C45.0738 230.147 43.2656 228.327 43.2656 226.084C43.2656 223.833 45.0738 222.021 47.3203 222.021C49.5588 222.021 51.3756 223.833 51.3756 226.084Z" fill="black"/>
<path d="M175.291 222.261C175.291 224.477 173.495 226.276 171.283 226.276C169.063 226.276 167.275 224.477 167.275 222.261C167.275 220.036 169.063 218.245 171.283 218.245C173.495 218.245 175.291 220.036 175.291 222.261Z" fill="black"/>
<path d="M168.689 234.533C168.689 236.75 166.894 238.549 164.681 238.549C162.461 238.549 160.674 236.75 160.674 234.533C160.674 232.309 162.461 230.518 164.681 230.518C166.894 230.518 168.689 232.309 168.689 234.533Z" fill="black"/>
<path d="M162.089 223.204C162.089 225.42 160.294 227.219 158.082 227.219C155.862 227.219 154.074 225.42 154.074 223.204C154.074 220.98 155.862 219.188 158.082 219.188C160.294 219.188 162.089 220.98 162.089 223.204Z" fill="black"/>
<path d="M148.417 220.136C148.417 222.222 146.727 223.915 144.645 223.915C142.556 223.915 140.873 222.222 140.873 220.136C140.873 218.042 142.556 216.356 144.645 216.356C146.727 216.356 148.417 218.042 148.417 220.136Z" fill="black"/>
<path d="M190.117 226.038C190.117 228.253 188.321 230.053 186.11 230.053C183.888 230.053 182.102 228.253 182.102 226.038C182.102 223.812 183.888 222.021 186.11 222.021C188.321 222.021 190.117 223.812 190.117 226.038Z" fill="black"/>
<path d="M182.574 238.31C182.574 240.526 180.778 242.325 178.567 242.325C176.346 242.325 174.559 240.526 174.559 238.31C174.559 236.084 176.346 234.294 178.567 234.294C180.778 234.294 182.574 236.084 182.574 238.31Z" fill="black"/>
<path d="M204 226.037C204 228.253 202.204 230.053 199.992 230.053C197.772 230.053 195.984 228.253 195.984 226.037C195.984 223.813 197.772 222.021 199.992 222.021C202.204 222.021 204 223.813 204 226.037Z" fill="black"/>
<path d="M195.042 210.223C195.042 212.048 193.563 213.53 191.742 213.53C189.914 213.53 188.441 212.048 188.441 210.223C188.441 208.391 189.914 206.916 191.742 206.916C193.563 206.916 195.042 208.391 195.042 210.223Z" fill="black"/>
<path d="M180.898 210.223C180.898 212.048 179.419 213.53 177.597 213.53C175.769 213.53 174.297 212.048 174.297 210.223C174.297 208.391 175.769 206.916 177.597 206.916C179.419 206.916 180.898 208.391 180.898 210.223Z" fill="black"/>
<path d="M166.753 210.223C166.753 212.048 165.274 213.53 163.453 213.53C161.625 213.53 160.152 212.048 160.152 210.223C160.152 208.391 161.625 206.916 163.453 206.916C165.274 206.916 166.753 208.391 166.753 210.223Z" fill="black"/>
<path d="M198.341 238.309C198.341 240.526 196.546 242.325 194.334 242.325C192.114 242.325 190.326 240.526 190.326 238.309C190.326 236.085 192.114 234.294 194.334 234.294C196.546 234.294 198.341 236.085 198.341 238.309Z" fill="black"/>
<path d="M31.8215 240.465C31.8215 242.969 29.7943 245 27.2964 245C24.7896 245 22.7715 242.969 22.7715 240.465C22.7715 237.954 24.7896 235.932 27.2964 235.932C29.7943 235.932 31.8215 237.954 31.8215 240.465Z" fill="black"/>
<path d="M28.05 227.249C28.05 229.752 26.0228 231.783 23.525 231.783C21.0181 231.783 19 229.752 19 227.249C19 224.737 21.0181 222.715 23.525 222.715C26.0228 222.715 28.05 224.737 28.05 227.249Z" fill="black"/>
<path d="M45.3539 240.289C45.3539 242.694 43.4056 244.647 41.005 244.647C38.5958 244.647 36.6562 242.694 36.6562 240.289C36.6562 237.875 38.5958 235.932 41.005 235.932C43.4056 235.932 45.3539 237.875 45.3539 240.289Z" fill="black"/>
</g>
</svg>
